<?xml version="1.0" encoding="UTF-8"?>
<svg width="2100" height="1234.6" enable-background="new 0 0 2100 1234.601" xmlns="http://www.w3.org/2000/svg" xmlns:xlink="http://www.w3.org/1999/xlink">
 <symbol id="zahnrad-liegend" clip-rule="evenodd" fill-rule="evenodd" stroke-miterlimit="3.864" viewBox="-500.285,-328.998,1000.57,657.997">
  <path d="m-280.12-46.043c0-78.967 124.47-142.98 278.02-142.98s276.02 64.014 276.02 142.98-126.6 139.52-276.02 139.98c-153.55.474-278.02-61.014-278.02-139.98zm-151.63-3.172c0 152.87 194.15 276.78 433.65 276.78s433.65-125.92 433.65-278.78-194.15-276.78-433.65-276.78-433.65 125.92-433.65 278.78z" fill="#191919" stroke="#4b3c28" stroke-width="2"/>
  <path d="m-289.67 4.475c64-72 152.02-107.26 285.21-111.18 129.79-3.818 229.79 45.182 291.79 96.182-10 76-131 145.46-286.79 145.72-163.21.275-271.21-63.725-290.21-130.72zm-183-20c0 168 134.5 307.44 473.45 307.44 291.56 0 471.55-136.44 471.55-307.44-9.5-163.5-196.99-286.44-471.55-286.44-276.45-.001-458.45 128.44-473.45 286.44z" fill="#646e6e" stroke="#321e3c" stroke-width="2.098"/>
  <path d="m-290.17-1.024c-6.5 11.499-12.5 32.499-12.5 32.499-.5 25 33 175 301 175 298 0 312.5-182.5 299-201-3-8-11.5-12.499-11.5-12.499 2 17.499-54.5 143.5-288.5 143.5-236 0-289-125.5-287.5-137.5z" fill="url(#SVGID_1_)" stroke="#4b3c28" stroke-linecap="round" stroke-linejoin="round" stroke-width="2"/>
  <g stroke-linecap="round" stroke-linejoin="round" stroke-width="2">
   <path d="m391.58 214.6c-7.125 2.5-30.395-17.664-33.75-20.126-.25-3.749-2.25-10-6.625-14.374 12 4.5 37.375 24.25 40.375 34.5z" fill="#938783" stroke="#5b4b63"/>
   <path d="m333.33 250.98c-3.75 13.25-34.145-17.665-37.5-20.125 4.75-5.5 3.5-25.376.75-30.875 10.25 4.75 24.25 16.25 28.5 23 7.25 11.499 9 23.75 8.25 28z" fill="#938783" stroke="#5b4b63"/>
   <path d="m266.08 282.23c-10.699 14.374-35.875-20-38.125-23.5 14-20.125 18.388-42.55 11.125-57.5 5.5 7.5 20 25.5 24.335 31.817.871 1.285 4.789 8.156 6.379 12.606 4.188 17.816 3.911 27.577-3.714 36.577z" fill="#938783" stroke="#5b4b63"/>
   <path d="m189.33 304.98c-13.375 9.25-32.682-23.542-34.625-27.25 17.75-15.251 38.875-44.5 36.875-61 3.688 3.504 17.601 27.806 20.141 33.165.404 1.498 3.143 8.649 3.198 13.376-.589 19.208-10.589 31.208-25.589 41.709z" fill="#938783" stroke="#5b4b63"/>
   <path d="m107.83 320.1c-18.651 6.672-36.011-26.808-37.5-30.875 29.438-16.608 59-37.25 74.5-56.25 3.5 4.25 10 20.25 11.848 26.068.172 1.559 1.652 9.307.062 14.833-7.41 18.349-24.237 35.765-48.91 46.224z" fill="url(#SVGID_2_)" stroke="#4b3c28"/>
   <path d="m22.083 326.98c-22 4.25-36.314-30.634-37.625-34.875 36.125-8 82-29.125 105.62-49.125 2.875 4 8.625 16.875 10.75 24.25.625 1.375 3.125 11.5-.12 15.911-13.13 16.839-48.88 39.964-78.63 43.839z" fill="url(#SVGID_3_)" stroke="#4b3c28"/>
   <path d="m-61.667 326.14c-23.816 1.963-33.834-32.167-34.31-35.581 35.31-4.836 103.16-25.904 130.06-41.836 3.75 4.749 8.657 22.513 8.894 27.082 1.022 2.001.736 11.071-1.306 13.468-16.684 13.645-68.365 33.254-103.34 36.867z" fill="url(#SVGID_4_)" stroke="#4b3c28"/>
   <path d="m-147.17 316.48c-28.338-1.005-32.5-36.749-31.978-42.568 25.144.424 112.48-9.181 154.73-24.181 6.25 7.25 8.947 24.177 8.75 28.749-.295 1.551-.337 8.871-3 11-21.134 11.501-86.81 27.751-128.5 27z" fill="url(#SVGID_5_)" stroke="#4b3c28"/>
   <path d="m-227.33 298.64c-29.333-6.168-28.583-39.168-28.833-47.168 36.5 3.501 118.75 3.751 176.25-6.249 4 5.5 9.601 28.839 8.75 30.75-.5 1.499-3.934 8.73-7 10.499-23.676 8.679-105.32 18.307-149.17 12.168z" fill="url(#SVGID_6_)" stroke="#4b3c28"/>
   <path d="m-322.17 273.98c-22-5.501-30-50-30-61 45.5 13 164.5 26 219 22 2.25 5.25 6 27.499 6 31.499-1.5 4-3.167 7.334-6.5 9-47.5 6-127 7.668-188.5-1.499z" fill="url(#SVGID_7_)" stroke="#4b3c28"/>
   <path d="m-394.42 240.1c-15.75-9.125-19.75-41.125-18.75-53.125 39.002 14.042 162.76 26.849 223.5 22.499 9.284-.01 9.268 37.953 9.375 40.626-.5 2-4.125 9.374-8.25 9.125-51.403 3.071-150.62-4.875-205.88-19.125z" fill="url(#SVGID_8_)" stroke="#4b3c28"/>
   <path d="m-444.67 196.48c-10.474-7.84-14-45-11.5-53 43.315 17.122 149.32 46.052 223 44.501 10.538.512 6.231 39.297 6 42.75-2 1.5-7.5 8.25-8.221 8.221-42.279-.971-157.28-19.472-209.28-42.472z" fill="url(#SVGID_9_)" stroke="#4b3c28"/>
   <path d="m-473.67 150.98c-5-11.501-5-50.501-2-56 31 21 126 64.499 206.5 68 11.771.231 2.5 40.499.5 46.499-1.5.751-5.75 3.251-8.75 4.251-69.25-8.5-145.25-35.251-196.25-62.75z" fill="url(#SVGID_10_)" stroke="#4b3c28"/>
   <path d="m-489.67 101.98c-6.5-19.501 2.045-51.903 6.5-52 28 20 109 72 192 84.499 6 5-4.75 41.751-6.75 45.751-1.5.5-9.75 2.75-12.25 3.249-38.564-.332-131-36.249-179.5-81.499z" fill="url(#SVGID_11_)" stroke="#4b3c28"/>
   <path d="m-486.17 66.976c-6.75-6.501-11.25-15.75-12.5-21.25-4-22.5 20.809-57.371 25.25-57 23 29 86.527 95.205 165.25 116.25 4 8-6.75 38-10 43-6 2-11.5 3-19.5 2.499-46.25-15.249-106.25-43.249-148.5-83.499z" fill="url(#SVGID_12_)" stroke="#321e3c"/>
   <path d="m-477.67 20.976c-4.25-4.75-16.25-17.25-12.5-28.501 1.5-6 14-37.499 21-45.249 36 46.5 79.5 90.75 155 125.25 2 6.501-10.25 36.501-15 42-3.5 1-10 1.501-14.5 1.501-36.979-10.951-105-61.501-134-95z" fill="url(#SVGID_13_)" stroke="#321e3c"/>
   <path d="m-459.92-35.525c-4-9-5.75-21.499-1.75-30.499 4.5-11.501 20.25-42.25 24.25-44.25 21 71.5 62.75 115.75 125.75 155.25-2 4-15 29.499-17.5 35-3 1.499-9.5 4-14.5 2-33.23-19.573-86.25-65-116.25-117.5z" fill="url(#SVGID_14_)" stroke="#321e3c"/>
   <path d="m-416.92-119.02c5.25-14.501 19.5-33.25 28.5-38.501 9 60.501 47 136 89.25 175.5-2.25 5-11.375 24.162-13.5 27.75-4.5 1.25-15 1.749-20 1.25-25.75-20.75-110.25-118.25-84.25-166z" fill="url(#SVGID_15_)" stroke="#321e3c"/>
   <path d="m-359.67-152.02c8.5-19 27.5-43 36.5-43-9.5 27 1.5 132.5 43.5 187.5-3.5 5.501-11.431 18.013-13.5 21.501-2 .499-9.5-.501-13.5-1-25.75-26.25-70-109.5-53-165z" fill="url(#SVGID_16_)" stroke="#321e3c"/>
   <path d="m-244.17-229.52c-16 10-32.25 27.251-39 42.501-22.75 56.75-16.75 114.5 11.5 169.25 6.5 4 7.75 3.5 11 3.249 4.5-7.499 12-17.499 14-21-22.5-60-19-154.5 2.5-194z" fill="url(#SVGID_17_)" stroke="#1e141e"/>
   <path d="m-194.67-222.02c4.5-6 28-26.501 35.5-28-24 42-52 85-43 187-2.5 3-14.246 20.321-16.5 23-2-1-5.5-3.501-6.5-5-14-47-5.5-135 30.5-177z" fill="url(#SVGID_18_)" stroke="#1e141e"/>
   <path d="m-66.167-262.52c-43.5 43-87 129.25-85 178.75-2.5 3-12.25 18.75-14.75 22.249-2.75-.249-6.75-6-6.75-5.499-6-57 40-159.5 106.5-195.5z" fill="url(#SVGID_19_)" stroke="#1e141e"/>
   <path d="m-18.167-222.02c-27.5 24-68.5 93-73.5 122-2.5 2.499-10.5 11-17 23.499-10-21.499 34.75-110.5 90.5-145.5z" fill="url(#SVGID_20_)" stroke="#1e141e"/>
  </g>
  <g stroke-linecap="round" stroke-linejoin="round" stroke-width="2">
   <path d="m283.58 139.73c.522 4.153 3.925 38.063 4.25 44.5 2 4.249 6.5 7.75 11.25 8.249 13.5 2.501 35.25 24 44.321 51.562 1.188-10.177 5.304-37.311 4.554-44.562-2.875-20.124-41.411-53.846-64.375-59.749z" fill="url(#SVGID_21_)" stroke="#786964"/>
   <path d="m302.33 110.1c.5 7.125 7.25 34.875 10 42.875 1.293 1.613 8.083 6.24 10.25 8 20 3.25 50.199 15.745 73.75 44.499 5.25 7.595 7.279 3.99 7.213 1.985 1.037-11.985-1.963-46.234-4.088-50.859-13-22-62.625-42.25-97.125-46.5z" fill="url(#SVGID_22_)" stroke="#786964"/>
   <path d="m311.08 77.226c2.046 4.695 13.862 35.776 16.25 43.249 1.72 1.406 8.903 4.96 11.615 6.345 26.635 1.906 70.231 12.578 101.45 37.518 7.173 6.776 9.244-.232 8.809-2.278.38-11.083-5.135-43.026-6.215-46.772-22.905-16.562-86.405-37.562-131.9-38.062z" fill="url(#SVGID_23_)" stroke="#786964"/>
   <path d="m311.33 44.226c3 4.5 16.75 33.75 19 40.75 2.25 1.25 11.042 6.856 14.5 8 38-1.25 81.75 4.499 122.52 26.625 9.48 6.125 14.48-3.126 13.73-5.126.5-11.749-7.781-36.611-9.5-40.249-27.5-11.5-106-30.751-160.25-30z" fill="url(#SVGID_24_)" stroke="#4b3c28"/>
   <path d="m309.83 27.226c1.922 4.941 8.853 19.978 12.982 25.891 5.436.956 9.768 3.109 13.856 4.018 41.162-4.908 90.162-3.659 148.37 14.243 9.043 2.098 12.043-3.151 12.749-5.731 2.794-10.171-9.374-34.614-11.706-38.42-35.804-7.168-113.32-15.264-176.25-.001z" fill="url(#SVGID_25_)" stroke="#4b3c28"/>
   <path d="m286.08-5.274c2.624 5.298 11.577 20.585 16.75 26.749 4.75 2.751 8.5 2.501 13.5 2 45.277-10.926 93.5-13.499 166.24-1.709 10.505.96 15.255-3.04 15.507-6.492-.252-11.298-11.252-31.298-14.22-35.296-40.532-4.503-129.28-8.252-197.78 14.748z" fill="url(#SVGID_26_)" stroke="#4b3c28"/>
   <path d="m253.83-31.525c3.243 5.325 10 15 16 21 6 2.251 12.5 3.251 17 2 46.553-15.638 100.86-18.667 178.5-18 11.755-.641 14.865-2.406 16.408-6.16 2.43-12.586-18.408-38.339-20.937-40.993-45.971.153-138.47 6.654-206.97 42.153z" fill="url(#SVGID_27_)" stroke="#4b3c28"/>
   <path d="m207.79-60.691c4.792 4.917 13.774 16.556 20.292 23.917 4.11 1.513 12.306.421 16.75.75 46.583-19.36 106-34.25 182-36 12-1.501 19-7 19.5-15 1.587-13.072-11.1-28.671-13.5-33-38.528-1.686-159.5 11.499-225.04 59.333z" fill="url(#SVGID_28_)" stroke="#4b3c28"/>
   <path d="m157.98-81.23c5.103 4.456 16.353 16.206 22.58 23.23 4.226 1.148 9.599-.119 14.055-.178 44.718-23.348 100.72-42.348 180.72-57.847 9.5-3 18.038-12.943 19-17 .442-13.16-5.232-28.396-8-32.501-38.528 1.68-171.6 25.545-228.35 84.296z" fill="url(#SVGID_29_)" stroke="#321e3c"/>
   <path d="m104.33-96.525c5.5 5.501 12.893 14.128 18.5 21.751 4.309.776 10-.25 14.434-.698 49.405-39.552 100.59-54.801 178.74-80.774 6.329-3.777 9.995-11.946 10.601-16.072-.706-13.148-10.895-26.18-14.01-30.026-38.236 5.03-156.84 42.346-208.26 105.82z" fill="url(#SVGID_30_)" stroke="#321e3c"/>
   <path d="m39.833-105.52c5 4 12.868 12.072 20.5 20.751 6.118.071 11.5-1 14-2.751 55-56.249 96-67.499 170-100 3.43-3.732 4.907-12.832 5.077-16.998-2.077-13.002-12.577-25.002-16.077-28.501-37.5 9-149 59-193.5 127.5z" fill="url(#SVGID_31_)" stroke="#321e3c"/>
   <path d="m-22.167-107.02c4.5 3.499 11.25 11.499 19.098 20.083 4.376-.138 4.63-1.729 7.902-4.083 40.102-48.96 76.964-74.347 148-116 3.022-4.072 7.266-12.839 7-17 .5-14-12.654-24.886-16.5-28-23.5 7-123 57.499-165.5 145z" fill="url(#SVGID_32_)" stroke="#321e3c"/>
   <path d="m-84.167-100.52c4.25 3.751 11.25 11.751 17 16.751 3.848-.727 4.284-1.562 6.88-4.28 29.334-52.755 61.62-89.471 116.12-128.47 8-7 9.751-17.015 9-21-1.296-13.595-12.216-21.512-16-24-27 10.501-106.33 70.68-133 161z" fill="url(#SVGID_33_)" stroke="#321e3c"/>
   <path d="m-140.17-87.024c2.5 3 8 10.499 13 16.499 6.5-44.499 43-101.5 87-148 5-7 7.705-21.742 6.5-25.499-2.99-12.977-8-19-11-22-38 27-90.5 95-95.5 179z" fill="url(#SVGID_34_)" stroke="#1e141e"/>
   <path d="m-193.46-67.413c2.026 2.428 4.738 6.033 8.792 10.888-3-64 23.5-111 50-156 6.5-11 5.702-22.711 4.5-26-3.339-11.509-10.259-12.2-13-13.499-23.729 29.641-58.999 96.499-50.292 184.61z" fill="url(#SVGID_35_)" stroke="#1e141e"/>
   <path d="m254.53 167.34c.133 3.891 1.372 37.888 1.299 43.885.404 1.411 4 9 8 9.249 3.75 1.626 13.656 13.35 21.052 38.559 1.198-5.559 2.698-17.683 3.573-24.559 1.126-38.124-19.874-67.874-33.924-67.134z" fill="url(#SVGID_36_)" stroke="#786964"/>
   <path d="m223.83 276.73c-.75-8.75-6.375-33.5-9.75-38.5-5.25-14.25 5.75-46 5.75-46 6.75 1 14.166 17.492 14.5 27.249.5 14.626-8.5 43.876-10.5 57.251z" fill="url(#SVGID_37_)" stroke="#786964"/>
   <path d="m-239.1-40.382c-10.572-50.893-3.072-96.893 13.714-144.57 8.464-18.821 4.288-39.32 2.429-42.285-2.286-2.858-3.907-4.443-6.857-5.144-21.143 37.144-35.572 126.86-9.286 192z" fill="url(#SVGID_38_)" stroke="#1e141e"/>
   <path d="m-285.38-16.953c-18.286-55.572-25.143-106.57-18.571-147.14 4.571-17.142-.429-33.429-4.714-36-2.662-2.511-2.286-1.142-5.286 1.286-11.571 33-6.714 120.29 28.571 181.86z" fill="url(#SVGID_39_)" stroke="#1e141e"/>
  </g>
  <path d="m-300.67 19.475s-27 37.501-30 61c-.344.729.346 8.709.089 9.917 6.155-7.294 11.54-17.276 13.161-16.917 4.477.995-5.996 27.062-12.619 40.523.558 3.382 1.312 5.996 2.303 9.802 6.528-7.692 11.68-19.867 17.066-18.824 5.796 1.122-2.392 27.698-8.353 42.906-.147 3.844 1.103 6.593 5.603 9.094 8.113-7.627 14.262-23.506 19.75-22.25 6.999 1.599-.08 31.677-4.983 45.949 2.165 2.729 5.983 5.301 8.733 6.051 8.772-7.863 15.269-24.015 20.75-22.75 9.458 2.183 4.055 32.104-.255 46.158 2.689 2.199 8.34 4.185 11.255 6.341 9.883-6.315 18.04-27.875 24-26.499 8.683 2.003 8.47 27.557 5.304 43.722 3.417 1.839 9.196 3.528 13.446 3.528 10.208-7.49 18.42-27.597 24.25-26.25 8.389 1.936 8.381 27.494 7.68 43.215 4.227 1.451 8.07 3.284 14.07 3.035 8.75-11.25 22.285-29.78 26.75-28.751 9.565 2.208 11.508 31.137 11.901 41.955 4.737.977 9.583 1.901 14.54 2.773 6.835-12.244 20.8-35.572 27.559-34.729 9.377 1.173 13.258 28.602 14.507 40.535 5.017.518 10.129.984 15.339 1.401 5.241-10.588 17.063-35.764 26.154-34.937 8.903.81 13.661 24.289 15.536 36.999 6.416-.021 11.713.894 17.896.747 2.791-9.394 12.457-35.994 21.568-37.746 10.853-2.086 17.13 26.495 18.578 35.991 7.34-.512 12.497-1.116 19.474-1.808 2.654-7.623 8.632-37.699 18.949-39.683 10.464-2.013 18.209 24.09 20.25 34.25 7.58-1.198 10.423-.761 17.521-2.177 1.657-9.681 6.632-40.728 16.229-42.574 11.057-2.125 18.506 24.313 20.375 32.376 6.689-1.837 9.676-1.722 15.875-3.75.416-11.432 1.394-40.586 10.196-45.243 9.925-5.252 22.117 23.311 25.59 32.104 3.78-1.664 7.447-3.364 11.005-5.098.764-10.46-.818-42.121 7.459-47.389 8.743-5.562 20.644 17.562 25.161 27.699 3.315-2.23 6.499-3.488 9.556-5.771-.745-11.338-2.485-42.659.784-45.929 8.498-8.496 19.593 15.367 23.534 24.825 3.716-2.449 6.764-5.033 9.387-8.056-2.113-12.743-7.271-41.918-3.42-45.77 7.684-7.684 16.554 10.929 20.125 21.876 2.875-3.125 3.875-6.375 5.394-10.728-3.64-14.025-9.811-39.139-8.019-41.647 6.013-8.419 13.344 9.17 17.246 20.644 1.614-4.534 3.911-7.838 4.948-11.849-4.79-12.486-14.875-38.079-13.194-40.795 4.618-7.461 12.76 11.075 16.508 22.435.853-7.168 1.701-11.814 1.492-12.936-4-16-32-67-34-69-5 113-141 184-303 184-138.43.005-296-60.995-297-182z" fill="url(#SVGID_40_)" stroke="#786964" stroke-linecap="round" stroke-linejoin="round" stroke-width="2"/>
  <g stroke-linecap="round" stroke-linejoin="round" stroke-width="2">
   <path d="m-231.67-33.525c-3.5-1-6.25-5.249-6.25-5.249-24-94.25 19-151.75 15.25-166.25 9-2 21-4.501 24.5-.501-13 16.501-44.5 80-25.75 159.75l6.25 5s-8.5 6.249-14 7.249z" fill="#b0b0b0" stroke="#786964"/>
   <path d="m-183.42-55.525c-1.5-1.499-2.5-5.749-2.5-5.749-3-90.75 54-145.75 54.25-162.75 9-2 28.5-1.501 28.5-1.501-13 16.501-71.25 84.251-65.75 159 1 2.251 3.75 4.501 3.75 4.501-.75 1-12.75 5.499-18.25 6.499z" fill="#b0b0b0" stroke="#786964"/>
   <path d="m-126.75-70.191c-1.5-1.5.417-8.334.417-8.334 25-99 90.417-136.67 90.667-153.67 9-2 28 1.666 28 1.666-14 16-80.667 60.334-101.67 149 .417 3.251.667 5.751.667 5.751-.75 1-12.584 4.583-18.084 5.583z" fill="#b0b0b0" stroke="#786964"/>
   <path d="m-66.917-83.274c1-2.251 5.25-7 5.25-7 40.179-93.87 120.25-116.75 124-142 9.202-.567 25.25 4.749 25.25 4.749-17.381 16.225-94 53.751-131.75 138 .635 2.379-2.25 5.251-2.25 5.251-.897.87-14.912.872-20.5 1z" fill="#b0b0b0" stroke="#646e6e"/>
   <path d="m-2.917-86.525c2.5-3 7.75-6.499 7.75-6.499 61.75-86.501 148.75-101.75 153.5-129.66 9.202.558 26.482 6.792 26.482 6.792-7.987 16.114-116.75 45.841-164.49 124.86-2 3.25-5.5 5-5.5 5-.996.754-12.186.054-17.749-.501z" fill="#b0b0b0" stroke="#646e6e"/>
   <path d="m60.583-84.274c2.893-2.623 11.067-3.942 11.067-3.942 76.683-84.309 171.43-81.558 176.68-112.56 9.036 1.833 22 10 22 10-5.75 15.5-124.34 33.087-182.61 104.7-2.433 2.94-8.637 4.805-8.637 4.805-2.995.368-14.75-.5-18.5-3z" fill="#b0b0b0" stroke="#646e6e"/>
   <path d="m123.08-74.525c3.152-2.306 13.064-2.785 13.064-2.785 85.936-73.964 182.69-62.464 189.48-93.476 8.794 2.77 20.834 11.246 20.834 11.246-5.378 15.516-123.13 20.766-196.56 87.035-4.073 1.73-11.092 2.875-11.092 2.875-3.016.054-10.48-2.394-15.73-4.895z" fill="#b0b0b0" stroke="#646e6e"/>
   <path d="m179.77-58.214c3.341-2.022 13.512-2.093 13.512-2.093 118.05-66.718 189.44-42.304 198.91-72.604 8.519 3.523 16.774 14.018 16.774 14.018-4.381 20.868-102.88 3.868-202.63 63.868-4 1.25-11.75 2.25-11.75 2.25-3.01-.209-10.5-3.249-14.813-5.439z" fill="#b0b0b0" stroke="#646e6e"/>
   <path d="m228.28-36.667c3.505-1.724 16.555-1.107 16.555-1.107 140-55.5 185.75-22.5 198.5-46 5 4.5 12.5 11.249 12.5 11.249-6.75 15.751-85.5-4.499-200.46 41.348-4.093.896-12.901 1.217-12.901 1.217-2.98-.473-10.64-3.814-14.196-6.707z" fill="#b0b0b0" stroke="#646e6e"/>
   <path d="m269.48-10.161c3.504-1.412 15.964.339 15.964.339 143.89-40.703 184.63-4.633 196.64-27.703 2.737 5.07 3.75 14 3.75 14-7.792 15.102-65-13.749-190.84 21.193-3.999.536-13.47.088-13.47.088-3.693-1.53-8.693-5.03-12.047-7.917z" fill="#b0b0b0" stroke="#646e6e"/>
   <path d="m302.01 20.271c5.575.204 13.612 1.383 13.612 1.383 127.46-25.928 175.71 13.072 182.44-7.845 2.021 6.417.93 13.226.93 13.226-9.909 14.941-64.409-19.309-177.41 2.44-5 0-12.25-1-12.25-1-2.749-1.499-5.499-5.499-7.324-8.204z" fill="#b0b0b0" stroke="#646e6e"/>
   <path d="m321.33 51.726c5.25 1.5 15 3.749 15 3.749 119-12.249 154.28 28.855 162.12 8.604-.616 5.896-3.616 15.146-3.616 15.146-13.25 10-54.5-25.5-157.25-14.922-4.58-.435-11.14-3.063-11.14-3.063-2.398-1.734-3.653-6.662-5.107-9.514z" fill="#b0b0b0" stroke="#646e6e"/>
   <path d="m332.97 86.812c4.863 1.038 10.779 4.042 10.779 4.042 112.08-.879 126.33 44.62 137.55 23.702-.985 5.82-9.467 13.669-9.467 13.669-16.5 1-41-26.25-127.67-28.466-3.956-.834-11.705-4.159-11.705-4.159.25-2.249.625-6.374.512-8.788z" fill="#b0b0b0" stroke="#646e6e"/>
   <path d="m327.21 118.35c3.563 2.477 11.75 6.375 11.75 6.375 96.653 12.593 102.12 52.875 111 37.749-1.675 5.669-12.25 11.626-12.25 11.626-13.375-5.125-25.25-28.375-101.88-40.626-3.288-1.303-11.75-6.749-11.75-6.749 1.75-2.375 2.75-6 3.125-8.375z" fill="#c0c0c0" stroke="#938783"/>
   <path d="m313.71 151.48c3.201 1.688 12 8 12 8 68.625 18.876 71.75 53.376 77.5 50-3.125 3.876-10.75 5-10.75 5-9.777-5.969-14.791-27.562-72.625-47.249-2.75-1-10.875-6.25-10.875-6.25 2.625-3.125 3.875-6.125 4.75-9.501z" fill="#c0c0c0" stroke="#938783"/>
   <path d="m290.96 185.73c4.875 6 10.75 5.5 10.75 5.5 48.75 23.875 41.916 53.639 41.625 57-4.122 2.792-10.783 5.873-10.783 5.873.033-3.248 6.283-30.123-37.217-54.748-4.75-.25-12.25-6.25-12.25-6.25 3.125-2.25 6.75-5.375 7.875-7.375z" fill="#cfcfcf" stroke="#938783"/>
   <path d="m258.21 213.48c2.401 6.438 9.625 7.626 9.625 7.626 29.75 31.75 11.351 55.968 9.875 58.625-6.75 2.5-16.375 6.375-16.375 6.375 2.125-2.125 25.25-25-3.75-58.25-4.345-1.696-9.875-9-9.875-9 2.625-1 7.625-3 10.5-5.376z" fill="#cfcfcf" stroke="#a19693"/>
   <path d="m216.46 238.35c2.625 5.625 5.625 8.375 5.625 8.375 12.75 38.749-17.02 56.137-19.481 57.851-7.394 1.399-16.019 1.898-16.019 1.898 3.375-1.749 34.625-20.374 24.704-54.213-4.329-2.911-6.954-9.161-6.954-9.161 2.801.194 9.5-2.875 12.125-4.75z" fill="#cfcfcf" stroke="#a19693"/>
   <path d="m169.71 257.1c.5 4.75.625 8.5.625 8.5-3.5 34-46.004 53.956-49.43 54.909-5.945.591-19.57.591-19.57.591 4.75-.5 49.125-17.875 55.125-52.75-1.75-3.625-3.125-7.25-3.125-7.25 3.75.75 13.625-2.626 16.375-4z" fill="#cfcfcf" stroke="#a19693"/>
   <path d="m117.96 268.85c.386 3.317-3.77 11.451-3.77 11.451-19.73 30.424-71.296 47.091-75.534 47.392-7.696.532-18.196.282-21.071-.093 7.75-.875 64.5-18.875 81.869-47.04.381-4.46-.244-7.835-.244-7.835 6.625.25 15.125-2.251 18.75-3.875z" fill="#cfcfcf" stroke="#a19693"/>
   <path d="m60.999 277.81c-.111 2.438-4.067 9.028-4.067 9.028-28.974 25.638-90.349 39.514-95.224 40.139-9 .375-22.881.249-26.25-.375 9.5-.625 79.625-14.75 104.98-39.79.914-4.411.559-7.668.559-7.668 5.5 1.332 15.167 0 20-1.334z" fill="#cfcfcf" stroke="#646e6e"/>
   <path d="m1.642 279.34c-.271 2.428-6.234 10.99-6.234 10.99-37.409 22.316-113.65 29.78-119.2 30.148-10.203-.096-24.476-3.199-28.25-4 12.208.168 102.21-9.499 132.99-28.984 1.295-4.356 1.232-8.777 1.232-8.777 5.375 2.161 14.489 1.596 19.465.623z" fill="#cfcfcf" stroke="#646e6e"/>
   <path d="m-57.501 277.14c-1.5 3.5-7.466 9.465-7.466 9.465-42.367 17.867-132.7 18.368-141.37 17.701-10.669-.808-21.776-5.44-25.667-6.5 14 2 123.5-2.166 154.83-14.334 1.675-4.254 2.833-7 2.833-7 5.833 1.668 12.167 1.834 16.833.668z" fill="#cfcfcf" stroke="#5b4b63"/>
   <path d="m-114.59 268.71c-1.799 3.356-9.264 9.777-9.264 9.777-60.313 11.987-169.31 4.488-179.38 2.575-10.559-1.734-21.216-8.403-24.999-9.799 22.569 6.211 148.44 8.962 191.5 1.041 3.067-3.079 5.433-5.727 5.433-5.727 4.76 1.774 12.26 2.274 16.711 2.133z" fill="#cfcfcf" stroke="#5b4b63"/>
   <path d="m-167.2 254.7c-1.973 3.257-12.711 9.28-12.711 9.28-46.629 7.122-185.65-13.051-191.43-13.883-10.453-2.285-19.827-6.12-26.502-12.148 14.675 7.028 164.93 23.078 208.33 18.339 4.341-4.812 6.841-7.436 6.841-7.436 3.751 2.876 10.751 5.876 15.466 5.848z" fill="#cfcfcf" stroke="#5b4b63"/>
   <path d="m-212.7 235.7c-2.965 2.527-16.711 9.28-16.711 9.28-80.754-1.504-185.25-29.504-198.25-35.504-11.5-6.499-17.25-11-20.5-16.249 19.5 11.5 148.5 43.75 214.16 43.061 4.841-3.812 5.841-6.436 5.841-6.436 3.75 2.876 11 4.876 15.465 5.848z" fill="#cfcfcf" stroke="#5b4b63"/>
   <path d="m-255.42 214.98c-2.964 2.527-18.5 5.25-18.5 5.25-92-9.25-177.58-50.62-184.25-53.25-11.5-5.501-16.75-17.501-17.25-21.501 12.25 18 132 60.251 197.75 65.751 4.75-1.5 9.75-3.25 9.75-3.25 3.75 2.875 8.035 6.027 12.5 7z" fill="#cfcfcf" stroke="#5b4b63"/>
   <path d="m-327.42 124.23c-4.25 1.249-15.75-.25-15.75-.25-83.75-35.75-136.25-93.75-143-101.25-8-12.251-6.5-27.251-4-31.75-8 29.499 105.75 110.25 146.75 124 6.5 1 13.25-.875 13.25-.875.75 3.875 1.75 8.374 2.75 10.125z" fill="#b0b0b0" stroke="#5b4b63"/>
   <path d="m-312.17 157.73c-5.09 2.428-20.75.25-20.75.25-90.75-28.501-149-77.25-156.98-85.71-9.57-11.506-10.023-27.29-9.023-32.29-3 34.499 117 96.75 164.25 109.75 7 .5 15.75-1.75 15.75-1.75 1.5 3 4 8 6.75 9.75z" fill="#b0b0b0" stroke="#5b4b63"/>
   <path d="m-287.92 185.98c-5 3.75-18.75 2.75-18.75 2.75-92-9.251-167.25-65.251-175-71.251-7.951-6.155-10.75-21.499-10.75-26.249 1.5 24 117 85 182.75 90.5 5.75-.251 11.5-2.251 11.5-2.251 2.25 2.501 5.785 5.528 10.25 6.501z" fill="#b0b0b0" stroke="#5b4b63"/>
   <path d="m-330.42 90.475c-4.25 1.251-13.25-.499-13.25-.499-78.25-43.75-121.5-114.5-125-122.5 2-5.249 5-8.249 9.25-10.249 3 25.249 75.75 101.25 116.25 122.75 6.5 1 13-.501 13-.501-.5 2.626-.75 8.501-.25 11z" fill="#b0b0b0" stroke="#5b4b63"/>
   <path d="m-320.88 54.93c-3.825.699-13.034-.954-13.034-.954-62.5-46.25-91.813-120.65-94-128.75 2.297-4.81 7.004-8.45 10.909-9.87.341 17.37 39.841 92.62 85.875 128.67 5.966.447 15.466 1.447 15.466 1.447-1.499 2.501-3.749 7.251-5.216 9.455z" fill="#b0b0b0" stroke="#5b4b63"/>
   <path d="m-301.17 22.475c-4-.749-10.5-2.499-10.5-2.499-57.75-63.75-62.25-131.25-63.5-139.25 2.684-4.231 10.625-7.238 14.25-8-1.5 15.25 8 83.5 55.25 138.75 5.174 1.327 12.25 1.751 12.25 1.751-1.75 2.249-4.75 6.249-7.75 9.249z" fill="#b0b0b0" stroke="#5b4b63"/>
   <path d="m-271.17-6.274c-3.638-.124-9.476-3.009-9.476-3.009-43.024-81.491-26.126-149.98-23.774-162.49 7.75-5.25 17.997-8.329 22.75-7.751-12 27.251-25.571 88.219 11.915 161.06 2.91 1.336 9.835 3.937 9.835 3.937s-6.156 5.95-11.25 8.251z" fill="#b0b0b0" stroke="#786964"/>
  </g>
  <path d="m457.44-85.415c-10.111-31.609-50.111-82-50.111-82-35.5-31.11-144.22-131.89-384-135.11-242.75-3.262-377.5 93-391 102.78-4 4.723-75 65.222-101 142.22-4.57 13.535-2.908 20.566 0 25.751 1.5-2.751 4.75-7.751 9.25-10.25-7.25-37.75 28.75-72 32.25-76 .25 2.25-6 29.75-.167 44.944 4.167-6.694 10.417-9.944 10.417-9.944-1.496-13.674-.279-26.157 4.75-37.501 9.5-15.499 24.5-35 31.166-36.666 8.834-1.833.084 17.417 5.834 39.666 6.5-5.249 15-7 15-7-2-44.499 40-71 46-72.499 10-3 6.5 21 10 26 6.5-2.501 22.5-8 22.5-8 3.5-25 36-47.501 46-50.278 16-4.722 12 22.278 12.222 27.777 9.778-3.249 26.111-4 26.111-4 3.417-12.249 18.667-40.499 49.556-44.666 22.611-.334 14.611 30.167 14.611 30.167l29.611-4.611c1.389-8.389 26.389-38.89 49.389-38.389 18.5.499 20 23.499 18 33.499 14.5-5.499 27 0 27 0 4-2.499 18-37.499 46.5-34 17.411 2.139 27.5 20 24 33.501 16-1 26 2.499 26 2.499 6-4 21.5-34.499 46.666-27.11 17.334 5.11 27.834 28.611 22.112 37.221 11.222 1.391 25.667 5.779 25.667 5.779 5.555-3.389 16.055-34.389 41.055-24.389 19.5 9.499 27.5 31.499 22.389 41.499 10.611 1.501 23.333 7.11 23.333 7.11 3.778-.11 11.278-32.11 30.278-22.11 15 9.501 27.5 26.501 24.5 44 11 3.501 19.5 10.501 19.5 10.501 8.5-3 9.389-26 20.5-19.501 20.956 12.26 30.5 40 25.5 48 9.75 4.501 18 12 18 12 3.5-1.499 5-23 12.5-17.499 6.5 7 34.5 40 22.5 50.499 9 3 13.5 11.501 13.5 11.501s4.001-9 2.111-15.391z" fill="url(#SVGID_41_)" stroke="#4b3c28" stroke-linecap="round" stroke-linejoin="round" stroke-width="2"/>
 </symbol>
 <linearGradient id="SVGID_1_" x1="-302.7" x2="300.7" y1="99.7" y2="99.7" gradientUnits="userSpaceOnUse">
  <stop stop-color="#1e141e" offset="0"/>
  <stop stop-color="#321e3c" offset=".176"/>
  <stop stop-color="#4b3c28" offset=".484"/>
  <stop stop-color="#321e3c" offset=".828"/>
  <stop stop-color="#1e141e" offset="1"/>
 </linearGradient>
 <linearGradient id="SVGID_2_" x1="110.2" x2="118.1" y1="321.7" y2="230.6" gradientUnits="userSpaceOnUse">
  <stop stop-color="#321e3c" offset="0"/>
  <stop stop-color="#938783" offset=".66"/>
  <stop stop-color="#938783" offset="1"/>
 </linearGradient>
 <linearGradient id="SVGID_3_" x1="34.5" x2="53" y1="330.8" y2="235.8" gradientUnits="userSpaceOnUse">
  <stop stop-color="#321e3c" offset="0"/>
  <stop stop-color="#938783" offset=".711"/>
  <stop stop-color="#938783" offset="1"/>
 </linearGradient>
 <linearGradient id="SVGID_4_" x1="-49.4" x2=".9" y1="335.7" y2="232.5" gradientUnits="userSpaceOnUse">
  <stop stop-color="#321e3c" offset="0"/>
  <stop stop-color="#938783" offset=".809"/>
  <stop stop-color="#938783" offset="1"/>
 </linearGradient>
 <linearGradient id="lg1" gradientUnits="userSpaceOnUse">
  <stop stop-color="#321e3c" offset="0"/>
  <stop stop-color="#938783" offset=".949"/>
  <stop stop-color="#938783" offset="1"/>
 </linearGradient>
 <linearGradient id="SVGID_5_" x1="-143.5" x2="-48.3" y1="329.6" y2="227.5" xlink:href="#lg1"/>
 <linearGradient id="SVGID_6_" x1="-232.6" x2="-93.7" y1="309.9" y2="223.1" xlink:href="#lg1"/>
 <linearGradient id="SVGID_7_" x1="-325.5" x2="-152" y1="286.3" y2="197.9" gradientUnits="userSpaceOnUse">
  <stop stop-color="#321e3c" offset="0"/>
  <stop stop-color="#938783" offset=".93"/>
  <stop stop-color="#938783" offset="1"/>
 </linearGradient>
 <linearGradient id="SVGID_8_" x1="-413.9" x2="-179.9" y1="221.7" y2="225.8" gradientUnits="userSpaceOnUse">
  <stop stop-color="#321e3c" offset="0"/>
  <stop stop-color="#908381" offset="1"/>
 </linearGradient>
 <linearGradient id="SVGID_9_" x1="-337.9" x2="-347.1" y1="160.1" y2="225.6" gradientUnits="userSpaceOnUse">
  <stop stop-color="#321e3c" offset="0"/>
  <stop stop-color="#321e3c" offset=".535"/>
  <stop stop-color="#887b7b" offset="1"/>
 </linearGradient>
 <linearGradient id="SVGID_10_" x1="-364.8" x2="-382.5" y1="124.7" y2="190.5" gradientUnits="userSpaceOnUse">
  <stop stop-color="#1e141e" offset="0"/>
  <stop stop-color="#5b4b63" offset=".934"/>
  <stop stop-color="#5b4b63" offset="1"/>
 </linearGradient>
 <linearGradient id="SVGID_11_" x1="-381.2" x2="-406.1" y1="85.1" y2="157.5" gradientUnits="userSpaceOnUse">
  <stop stop-color="#1e141e" offset="0"/>
  <stop stop-color="#321e3c" offset=".617"/>
  <stop stop-color="#938783" offset=".992"/>
  <stop stop-color="#938783" offset="1"/>
 </linearGradient>
 <linearGradient id="SVGID_12_" x1="-382.7" x2="-424.1" y1="43.2" y2="112.3" gradientUnits="userSpaceOnUse">
  <stop stop-color="#1e141e" offset="0"/>
  <stop stop-color="#321e3c" offset=".379"/>
  <stop stop-color="#938783" offset=".891"/>
  <stop stop-color="#938783" offset="1"/>
 </linearGradient>
 <linearGradient id="SVGID_13_" x1="-382.3" x2="-425.2" y1="5.8" y2="69.4" gradientUnits="userSpaceOnUse">
  <stop stop-color="#1e141e" offset="0"/>
  <stop stop-color="#321e3c" offset=".41"/>
  <stop stop-color="#938783" offset=".965"/>
  <stop stop-color="#938783" offset="1"/>
 </linearGradient>
 <linearGradient id="SVGID_14_" x1="-377.5" x2="-396.5" y1="-104" y2="76.8" gradientUnits="userSpaceOnUse">
  <stop stop-color="#321e3c" offset="0"/>
  <stop stop-color="#4b3c28" offset=".688"/>
  <stop stop-color="#938783" offset=".934"/>
  <stop stop-color="#938783" offset="1"/>
 </linearGradient>
 <linearGradient id="SVGID_15_" x1="-379.7" x2="-346.4" y1="-158.9" y2="51.2" gradientUnits="userSpaceOnUse">
  <stop stop-color="#1e141e" offset="0"/>
  <stop stop-color="#4b3c28" offset=".734"/>
  <stop stop-color="#786964" offset=".902"/>
  <stop stop-color="#786964" offset="1"/>
 </linearGradient>
 <linearGradient id="SVGID_16_" x1="-335.3" x2="-313.3" y1="-193.8" y2="16.1" gradientUnits="userSpaceOnUse">
  <stop stop-color="#1e141e" offset="0"/>
  <stop stop-color="#4b3c28" offset=".762"/>
  <stop stop-color="#786964" offset=".93"/>
  <stop stop-color="#786964" offset="1"/>
 </linearGradient>
 <linearGradient id="SVGID_17_" x1="-271.6" x2="-267.9" y1="-229" y2="-14.3" gradientUnits="userSpaceOnUse">
  <stop stop-color="#1e141e" offset="0"/>
  <stop stop-color="#4b3c28" offset=".988"/>
  <stop stop-color="#4b3c28" offset="1"/>
 </linearGradient>
 <linearGradient id="SVGID_18_" x1="-186.5" x2="-212.8" y1="-253.4" y2="-39.3" gradientUnits="userSpaceOnUse">
  <stop stop-color="#1e141e" offset="0"/>
  <stop stop-color="#4b3c28" offset=".965"/>
  <stop stop-color="#4b3c28" offset="1"/>
 </linearGradient>
 <linearGradient id="SVGID_19_" x1="-93.9" x2="-154.8" y1="-270.5" y2="-58.3" gradientUnits="userSpaceOnUse">
  <stop stop-color="#1e141e" offset="0"/>
  <stop stop-color="#473827" offset="1"/>
 </linearGradient>
 <linearGradient id="SVGID_20_" x1="-30.3" x2="-107.8" y1="-228.2" y2="-76.1" gradientUnits="userSpaceOnUse">
  <stop stop-color="#1e141e" offset="0"/>
  <stop stop-color="#4b3c28" offset=".852"/>
  <stop stop-color="#4b3c28" offset="1"/>
 </linearGradient>
 <linearGradient id="SVGID_21_" x1="342.7" x2="292.5" y1="182.4" y2="198.7" gradientUnits="userSpaceOnUse">
  <stop stop-color="#321e3c" offset="0"/>
  <stop stop-color="#786964" offset=".742"/>
  <stop stop-color="#786964" offset="1"/>
 </linearGradient>
 <linearGradient id="SVGID_22_" x1="390.5" x2="324.1" y1="139.7" y2="175" gradientUnits="userSpaceOnUse">
  <stop stop-color="#321e3c" offset="0"/>
  <stop stop-color="#786964" offset=".648"/>
  <stop stop-color="#786964" offset="1"/>
 </linearGradient>
 <linearGradient id="SVGID_23_" x1="424.1" x2="346" y1="89.3" y2="146.1" gradientUnits="userSpaceOnUse">
  <stop stop-color="#1e141e" offset="0"/>
  <stop stop-color="#321e3c" offset=".273"/>
  <stop stop-color="#786964" offset=".633"/>
  <stop stop-color="#786964" offset="1"/>
 </linearGradient>
 <linearGradient id="SVGID_24_" x1="433.1" x2="364.5" y1="39.6" y2="115.8" gradientUnits="userSpaceOnUse">
  <stop stop-color="#1e141e" offset="0"/>
  <stop stop-color="#321e3c" offset=".301"/>
  <stop stop-color="#786964" offset=".598"/>
  <stop stop-color="#786964" offset="1"/>
 </linearGradient>
 <linearGradient id="SVGID_25_" x1="431.4" x2="382" y1="-3.1" y2="85.9" gradientUnits="userSpaceOnUse">
  <stop stop-color="#1e141e" offset="0"/>
  <stop stop-color="#321e3c" offset=".328"/>
  <stop stop-color="#786964" offset=".594"/>
  <stop stop-color="#786964" offset="1"/>
 </linearGradient>
 <linearGradient id="SVGID_26_" x1="408.3" x2="378.6" y1="-44.6" y2="46.5" gradientUnits="userSpaceOnUse">
  <stop stop-color="#1e141e" offset="0"/>
  <stop stop-color="#321e3c" offset=".246"/>
  <stop stop-color="#786964" offset=".516"/>
  <stop stop-color="#786964" offset="1"/>
 </linearGradient>
 <linearGradient id="SVGID_27_" x1="370.3" x2="366.3" y1="-78.4" y2="-3.5" gradientUnits="userSpaceOnUse">
  <stop stop-color="#321e3c" offset="0"/>
  <stop stop-color="#786964" offset=".676"/>
  <stop stop-color="#786964" offset="1"/>
 </linearGradient>
 <linearGradient id="SVGID_28_" x1="324.4" x2="329.5" y1="-113.8" y2="-41.9" gradientUnits="userSpaceOnUse">
  <stop stop-color="#1e141e" offset="0"/>
  <stop stop-color="#786964" offset=".676"/>
  <stop stop-color="#786964" offset="1"/>
 </linearGradient>
 <linearGradient id="SVGID_29_" x1="269" x2="283.3" y1="-144.6" y2="-77" gradientUnits="userSpaceOnUse">
  <stop stop-color="#1e141e" offset="0"/>
  <stop stop-color="#786964" offset=".664"/>
  <stop stop-color="#786964" offset="1"/>
 </linearGradient>
 <linearGradient id="SVGID_30_" x1="202.4" x2="225.5" y1="-166.5" y2="-114.7" gradientUnits="userSpaceOnUse">
  <stop stop-color="#1e141e" offset="0"/>
  <stop stop-color="#786964" offset=".863"/>
  <stop stop-color="#786964" offset="1"/>
 </linearGradient>
 <linearGradient id="SVGID_31_" x1="128.5" x2="157.4" y1="-185.4" y2="-135.4" gradientUnits="userSpaceOnUse">
  <stop stop-color="#1e141e" offset="0"/>
  <stop stop-color="#786964" offset=".84"/>
  <stop stop-color="#786964" offset="1"/>
 </linearGradient>
 <linearGradient id="SVGID_32_" x1="49.2" x2="83.1" y1="-195.4" y2="-152.1" gradientUnits="userSpaceOnUse">
  <stop stop-color="#1e141e" offset="0"/>
  <stop stop-color="#4b3c28" offset=".609"/>
  <stop stop-color="#786964" offset=".805"/>
  <stop stop-color="#786964" offset="1"/>
 </linearGradient>
 <linearGradient id="SVGID_33_" x1="-32.5" x2="8.7" y1="-197.1" y2="-154.5" gradientUnits="userSpaceOnUse">
  <stop stop-color="#1e141e" offset="0"/>
  <stop stop-color="#4b3c28" offset=".621"/>
  <stop stop-color="#786964" offset=".891"/>
  <stop stop-color="#786964" offset="1"/>
 </linearGradient>
 <linearGradient id="SVGID_34_" x1="-114.4" x2="-61" y1="-193.1" y2="-146.6" gradientUnits="userSpaceOnUse">
  <stop stop-color="#1e141e" offset="0"/>
  <stop stop-color="#4b3c28" offset=".731"/>
  <stop stop-color="#4b3c28" offset="1"/>
 </linearGradient>
 <linearGradient id="SVGID_35_" x1="-192.3" x2="-137" y1="-171.1" y2="-139.1" gradientUnits="userSpaceOnUse">
  <stop stop-color="#1e141e" offset="0"/>
  <stop stop-color="#4b3c28" offset=".644"/>
  <stop stop-color="#4b3c28" offset="1"/>
 </linearGradient>
 <linearGradient id="SVGID_36_" x1="286.9" x2="256.2" y1="211.4" y2="214.6" gradientUnits="userSpaceOnUse">
  <stop stop-color="#3b2841" offset="0"/>
  <stop stop-color="#786964" offset=".797"/>
  <stop stop-color="#786964" offset="1"/>
 </linearGradient>
 <linearGradient id="SVGID_37_" x1="234.4" x2="212.7" y1="234.5" y2="234.5" gradientUnits="userSpaceOnUse">
  <stop stop-color="#321e3c" offset="0"/>
  <stop stop-color="#b0b0b0" offset=".906"/>
  <stop stop-color="#b0b0b0" offset="1"/>
 </linearGradient>
 <linearGradient id="SVGID_38_" x1="-260.8" x2="-210.4" y1="-144.9" y2="-128.6" gradientUnits="userSpaceOnUse">
  <stop stop-color="#1e141e" offset="0"/>
  <stop stop-color="#4b3c28" offset=".633"/>
  <stop stop-color="#4b3c28" offset="1"/>
 </linearGradient>
 <linearGradient id="SVGID_39_" x1="-329.7" x2="-270" y1="-114.8" y2="-104.3" gradientUnits="userSpaceOnUse">
  <stop stop-color="#1e141e" offset="0"/>
  <stop stop-color="#4b3c28" offset=".637"/>
  <stop stop-color="#4b3c28" offset="1"/>
 </linearGradient>
 <linearGradient id="SVGID_40_" x1="-330.8" x2="333.4" y1="150.4" y2="150.4" gradientUnits="userSpaceOnUse">
  <stop stop-color="#1e141e" offset="0"/>
  <stop stop-color="#938783" offset=".164"/>
  <stop stop-color="#321e3c" offset=".324"/>
  <stop stop-color="#b0b0b0" offset=".484"/>
  <stop stop-color="#321e3c" offset=".652"/>
  <stop stop-color="#938783" offset=".816"/>
  <stop stop-color="#1e141e" offset="1"/>
 </linearGradient>
 <linearGradient id="SVGID_41_" x1="-471.5" x2="458" y1="-167.2" y2="-167.2" gradientUnits="userSpaceOnUse">
  <stop stop-color="#321e3c" offset="0"/>
  <stop stop-color="#786964" offset=".492"/>
  <stop stop-color="#321e3c" offset=".965"/>
  <stop stop-color="#321e3c" offset="1"/>
 </linearGradient>
 <symbol id="zahnrad-schräg" clip-rule="evenodd" fill-rule="evenodd" stroke-linecap="round" stroke-linejoin="round" stroke-miterlimit="3.864" viewBox="-438.996,-263.231,877.991,526.463">
  <g stroke="#786964" stroke-width="2">
   <path d="m-116 181.01c.983-.296 13-.5 20.5-.5 7.5-3 47-16.5 58-20.5 4.5-4.5 10-9 10-9-58.5-28.5-95.5-139-72-182-.657.263-9.5-1-16.088-.695-16.1 7.36-37.953 16.554-52.412 23.195-6.5 7-14.5 14.5-14.5 14.5-5.5 6.5-21.5 36 6.5 102.5 25.981 61.704 49.5 70.5 60 72.5z" fill="url(#SVGID_42_)"/>
   <path d="m-235.14 209c3.539-1.032 29.503-10.252 29.503-10.252-24.864-17.731-67.364-109.73-58.943-139.61-1.77.688-29.258 12.449-29.258 12.449-5.311 1.719-17.271 39.111 3.614 85.526 26.283 58.412 51.898 52.577 55.084 51.89z" fill="url(#SVGID_43_)"/>
   <path d="m-368.5 262.23c4.837-1.133 149-54.719 149-54.719-42.5 1-87-113-62-145.5-2.42.755-146.5 64.5-146.5 64.5-5.5 5.072-19.954 26.872 1 79 20.5 51.001 48 55.159 58.5 56.719z" fill="url(#SVGID_44_)"/>
  </g>
  <g stroke="#786964" stroke-width="2">
   <path d="m-21.505 156.51c5-1.5 433-171 433-171 15.5-62-38-174.5-83-201-2.5 1-428 174-428 174-7.5 2.5-25.5 50.5 4 118 37.124 84.946 69.5 81 74 80z" fill="url(#SVGID_45_)"/>
   <path d="m-184 211.01c4.837-1.452 74.5-28.5 74.5-28.5-56-29-91.5-143-71-181-2.42.968-81 33-81 33-7.258 2.418-23.607 38.154 4.939 103.48 35.927 82.203 68.206 73.992 72.561 73.025z" fill="url(#SVGID_46_)"/>
  </g>
  <path d="m272.5 116.51c-21.944-19.718-40.5-46.5-56.812-79.901-20.188-3.099-28.188-40.099-33.363-56.449 5.676-14.649-1.824-27.149-12.418-27.818-18.906-44.831-28.906-79.831-29.906-120.83 2.5-3.5 3.5-8.5 4.5-14-2-10.5-4.5-39.5-2.5-46.5 2.5-8 9-18.5 20.5-26 12-6.5 96-2 96-2s23.5-1.5 37.5 0c7.5 2 36 17.5 36 17.5s13 30.5 16.5 39.5c5.5 1 21-8.5 25-4.5 3 13 10.5 38.5 10.5 38.5s10 52.5 30.5 99c5.5 11.5 21 30.5 22 37 .5 3.5 1 16 1 16l-15.5-.5 7.5 19-1 23.5s-11.5 9.5-15 10.5c-3.041.868-15 0-15 0-4.5 5.5-17.5 49-31 54-12.379 4.585-28-3-28-3s-1 38.5-17.5 41c-21 5-37-24-37-24s-4.001 12.499-12.501 9.999z" fill="#786964" stroke="#938783" stroke-width="2"/>
  <path d="m149-186.49c0-17.5-4-47-4-47 4-15 13.5-21.5 18-23.5 34-11.5 107-.5 107-.5 21 7 64 38.5 64 38.5-56.5 0-116 3.5-185 32.5z" fill="url(#SVGID_47_)" stroke="#938783" stroke-width="2"/>
  <path d="m144.5-178.49c-4.215 5.901-4 17.5-3 29.5 16.5 5 4 39.5 10.5 52 49-100 119.11-120.1 189-120 1.334-7.312-6.5-21-12.5-27.5-9-9-32.67-17.099-38.5-17-41.87 4.27-102.4 11.836-145.5 83z" fill="url(#SVGID_48_)" stroke="#938783" stroke-width="2"/>
  <path d="m176.5-87.987c-2.185 6.915-6.5 21.5-6.5 43 18.5-.5 5.5 31.5 15.5 37.5 23-108 82-170.5 148.5-192-.99-7.367-14.463-26.84-19.5-32-5.808-6.347-15.986-9.396-21.5-7.5-38.5 17-97.5 70-116.5 151z" fill="url(#SVGID_49_)" stroke="#938783" stroke-width="2"/>
  <path d="m218 52.013c2 4.5 6 8 13 13 13.5-92 73.5-193 107-223-2.5-7-10.5-14-16.5-18-7-5-15.5-4.5-20.5-1.5-38.5 36.5-75.5 139.5-83 229.5z" fill="url(#SVGID_50_)" stroke="#938783" stroke-width="2"/>
  <path d="m338.5 92.513c6 2.5 21 4.5 30 0 13.4-6.7 30-48 33.5-67.5 1-12.5-5-42.5-5-42.5s-9.5-50-17-50.5c-7.5-1.5-12.5 14.5-17.5 48.5-2 7.5-21.5 82-24 112z" fill="url(#SVGID_51_)" stroke="#b0b0b0" stroke-width="2"/>
  <path d="m282.5 101.01c5.5 16 23 32 34.5 28.5 10.907-3.319 17.5-14.5 19-34.5 1-12.5 20-103 28.5-122 2.5-11.5 1-66.5-6.5-67-25.5 28.5-70.5 138-75.5 195z" fill="url(#SVGID_52_)" stroke="#b0b0b0" stroke-width="2"/>
  <path d="m232 66.513c5.75 13 27.443 44.644 40.25 43.749 10.75-.749 8.75-30.749 10.25-50.749 3-45.5 21.75-111 28.25-130.25 10.75-21.749 36-85.5 28.5-86-40.75 37.251-97.75 157.75-107.25 223.25z" fill="url(#SVGID_53_)" stroke="#786964" stroke-width="2"/>
  <path d="m186.5-6.487c3 14.5 14.193 42.894 27 42 10.75-.751 10-15 11.5-35 9-91 67-173 76.5-186.5-48 30.5-97.5 97-115 179.5z" fill="url(#SVGID_54_)" stroke="#786964" stroke-width="2"/>
  <path d="m259.24 105.26c11.25 7 19.25 1.751 18.75-8-1-89 33.25-186.25 42-194.75 5.5-1 5.75 4.249 4.5 7-12.75 30-38.5 117.5-38.25 193.5.25 6.749-1.75 16.5-6.5 17.249-9.5 0-16.5-9.249-20.5-15z" fill="#cfcfcf" stroke="#938783"/>
  <path d="m201.54 29.315c9.957 8.697 15.457 4.197 16.907-7.29 7.8-107.26 68.05-202.01 80.653-207.99 6.342-.476 6.143 5.776 4.47 8.397-32.823 38.079-71.573 130.58-75.278 206.1-.336 6.746-.295 25.481-4.295 29.481-9.5 2.001-19.75-22.25-22.457-28.697z" fill="#cfcfcf" stroke="#938783"/>
  <path d="m301.5 126.01c16.5 6 28.25-5.251 30.5-17.751 7-50.749 22.5-118.25 28.5-129.75 5.5-1 5.75 1.249 4.5 4-7.75 25.749-23.25 95.5-25.5 124-1.5 13-5 22.5-15 26-6.332 2.216-16.5-2-23-6.5z" fill="#cfcfcf" stroke="#938783"/>
  <path d="m157.74-76.738c5 3.5 10-2.249 12-9.5 29-110.25 109.5-152 125.5-154.75 6.342-.477 3 2.5-1.5 4-38.5 18.5-100.5 81-116.46 162.02-1.295 6.981-2.795 29.481-7.545 30.73-4-8-9.75-27.249-12-32.5z" fill="#cfcfcf" stroke="#938783"/>
  <path d="m141-146.99c-2.5-3.5-3.5-29-3.5-29 41.5-82.251 139-86 153-86-.25 1.749 0 3 0 3-34 2.249-106.5 12-142.5 83.5-3.75 10-3.5 25-7 28.5z" fill="#b0b0b0" stroke="#786964"/>
  <g stroke-width="2">
   <path d="m403 26.513-4-3c.5-4.751-4-28.5-4-28.5s-5-14.251-7-17c0-2.5-6.25-33-10.5-34-3.25-1-5 20.5-5 20.5s-1.75 9.5-3 11c-1.25 2.249-5.5 9-5.5 9l-4-5c1.5-6 .5-29.251-.5-32 0-6.5-3.75-19.5-3.75-22-.5-2.251-.25-14.5-.25-14.5s-2.25-15-4.25-16.251c-1.5-1-13.75 3.251-13.75 3.251s-11.5 8-13 12.5c-2.25-2.751-4-9-4-9 2.25-5.251 5.5-26.5 5.5-26.5s1-10.251 2-13c1.25-2.751 9.5-7.5 9.25-9.751 1-3.5-3.25-10.749-3.25-10.749s-14-14.5-18-16c-4.25-1.751-15-1-15-1l-2-10.5s10-10 13-10.5c3.25-1 13 3.5 13 3.5s7 3 7.5 1.249c2-1.249-1.5-9.249-1.5-9.249s-16.25-25.751-18.5-28c-2.75-2-19.5-8-19.5-8l2.5-4.5s18.25 1.249 23.25 4c3.25 3 14.25 17.749 15.25 21.5 6 8 8.25 2.249 8-1.5 1.5 1.5 10 11.749 13.5 12 1.75.749 16.75.5 20-.5 2.5 4.5 7 19.249 7 23.5 1 5.749 6 7.5 6 7.5 2.25 1 3 1.749 3 1.749 4.5 5.251 9.5 14.751 10.801 20.063.699 2.937 2.449 6.937 3.812 9.145 5.888.292 7.138 7.543 7.638 12.792-1.25-.249-5.75-1.249-5.75-1.249s0 21.5 2.5 26c1.25 1.749 12.25 8.5 14.5 8.5-.25 4.5 6.5 26.249 5.5 29-1.75-.751-10.5-2.5-11.5 0-.25 3.749 5 15 5 15 2.5 1.749 7.25 7.249 9 11 1.25 2 4.5 11 4.5 11l.5 18-3-5-8-6s-.75-6-2.5-8c-2.25-1.751-6.5 0-6.5 0s4 16.749 8.5 21.5c1.5 3.749 4.5 18 4.5 18s0 16.249-2 21.5c-.25-3-4.5-19-4.5-19s-7-11.251-9.5-14c-1-3-.5-9-.5-9s-7.5-14-9.5-15c-1.5-1-4 .5-4 .5-.5 2.5 4 18.5 4 18.5l-.5 8s1.75 9.249 1.5 11c.249 3-3.001 17.5-3.001 17.5z" fill="url(#SVGID_55_)" stroke="#4b3c28"/>
   <path d="m357.26-108.47c15.733 38.793 37.928 66.047 49.573 60.872 11.645-5.173 8.33-40.815-7.403-79.608-15.734-38.795-37.928-66.048-49.573-60.874-11.645 5.173-8.331 40.814 7.403 79.61z" fill="#321e3c" stroke="#786964"/>
   <path d="m371.64-118.13c4.599 12.336 12.007 21.417 16.547 20.288 4.539-1.132 4.49-12.046-.109-24.382-4.598-12.335-12.006-21.418-16.546-20.287-4.54 1.13-4.492 12.046.108 24.381z" fill="url(#SVGID_56_)" stroke="#1e141e"/>
  </g>
 </symbol>
 <linearGradient id="SVGID_42_" x1="-159.1" x2="-81.6" y1="-14.1" y2="177.8" gradientUnits="userSpaceOnUse">
  <stop stop-color="#4b3c28" offset="0"/>
  <stop stop-color="#321e3c" offset=".141"/>
  <stop stop-color="#4b3c28" offset=".262"/>
  <stop stop-color="#321e3c" offset=".383"/>
  <stop stop-color="#4b3c28" offset=".496"/>
  <stop stop-color="#321e3c" offset=".609"/>
  <stop stop-color="#4b3c28" offset=".734"/>
  <stop stop-color="#321e3c" offset=".836"/>
  <stop stop-color="#4b3c28" offset=".949"/>
  <stop stop-color="#4b3c28" offset="1"/>
 </linearGradient>
 <linearGradient id="SVGID_43_" x1="-291.6" x2="-234.8" y1="70" y2="210.5" gradientUnits="userSpaceOnUse">
  <stop stop-color="#3b3138" offset="0"/>
  <stop stop-color="#a19693" offset=".242"/>
  <stop stop-color="#fff" offset=".527"/>
  <stop stop-color="#646e6e" offset=".805"/>
  <stop stop-color="#d5d8d8" offset="1"/>
 </linearGradient>
 <linearGradient id="SVGID_44_" x1="-367.6" x2="-308.3" y1="96.8" y2="243.4" gradientUnits="userSpaceOnUse">
  <stop stop-color="#4b3c28" offset="0"/>
  <stop stop-color="#321e3c" offset=".137"/>
  <stop stop-color="#4b3c28" offset=".262"/>
  <stop stop-color="#321e3c" offset=".383"/>
  <stop stop-color="#4b3c28" offset=".504"/>
  <stop stop-color="#321e3c" offset=".621"/>
  <stop stop-color="#4b3c28" offset=".754"/>
  <stop stop-color="#321e3c" offset=".856"/>
  <stop stop-color="#4b3c28" offset=".973"/>
  <stop stop-color="#4b3c28" offset="1"/>
 </linearGradient>
 <linearGradient id="SVGID_45_" x1="108" x2="189.5" y1="-126.4" y2="75.2" gradientUnits="userSpaceOnUse">
  <stop stop-color="#1e141e" offset="0"/>
  <stop stop-color="#a19693" offset=".297"/>
  <stop stop-color="#fff" offset=".535"/>
  <stop stop-color="#646e6e" offset=".758"/>
  <stop stop-color="#fff" offset=".973"/>
  <stop stop-color="#fff" offset="1"/>
 </linearGradient>
 <linearGradient id="SVGID_46_" x1="-236.9" x2="-164.1" y1="24.3" y2="204.6" gradientUnits="userSpaceOnUse">
  <stop stop-color="#1e141e" offset="0"/>
  <stop stop-color="#a19693" offset=".297"/>
  <stop stop-color="#fff" offset=".531"/>
  <stop stop-color="#646e6e" offset=".754"/>
  <stop stop-color="#fff" offset=".965"/>
  <stop stop-color="#fff" offset="1"/>
 </linearGradient>
 <linearGradient id="SVGID_47_" x1="143.4" x2="320.2" y1="-203.8" y2="-261.3" gradientUnits="userSpaceOnUse">
  <stop stop-color="#1e141e" offset="0"/>
  <stop stop-color="#5b4b63" offset=".469"/>
  <stop stop-color="#786964" offset=".734"/>
  <stop stop-color="#c0c0c0" offset=".906"/>
  <stop stop-color="#c0c0c0" offset="1"/>
 </linearGradient>
 <linearGradient id="SVGID_48_" x1="138.2" x2="311.8" y1="-112.8" y2="-263.7" gradientUnits="userSpaceOnUse">
  <stop stop-color="#1e141e" offset="0"/>
  <stop stop-color="#5b4b63" offset=".688"/>
  <stop stop-color="#786964" offset=".981"/>
  <stop stop-color="#786964" offset="1"/>
 </linearGradient>
 <linearGradient id="SVGID_49_" x1="171.9" x2="305.5" y1="-15.7" y2="-238" gradientUnits="userSpaceOnUse">
  <stop stop-color="#1e141e" offset="0"/>
  <stop stop-color="#5b4b63" offset=".656"/>
  <stop stop-color="#786964" offset=".863"/>
  <stop stop-color="#c0c0c0" offset=".992"/>
  <stop stop-color="#c0c0c0" offset="1"/>
 </linearGradient>
 <linearGradient id="SVGID_50_" x1="205" x2="325" y1="51.2" y2="-174.3" gradientUnits="userSpaceOnUse">
  <stop stop-color="#1e141e" offset="0"/>
  <stop stop-color="#5b4b63" offset=".672"/>
  <stop stop-color="#786964" offset=".969"/>
  <stop stop-color="#786964" offset="1"/>
 </linearGradient>
 <linearGradient id="SVGID_51_" x1="359.6" x2="373.6" y1="-66.4" y2="93.7" gradientUnits="userSpaceOnUse">
  <stop stop-color="#321e3c" offset="0"/>
  <stop stop-color="#786964" offset=".664"/>
  <stop stop-color="#cfcfcf" offset=".906"/>
  <stop stop-color="#cfcfcf" offset="1"/>
 </linearGradient>
 <linearGradient id="SVGID_52_" x1="312.5" x2="335.4" y1="-89.2" y2="127.8" gradientUnits="userSpaceOnUse">
  <stop stop-color="#321e3c" offset="0"/>
  <stop stop-color="#786964" offset=".742"/>
  <stop stop-color="#c8c7c6" offset="1"/>
 </linearGradient>
 <linearGradient id="SVGID_53_" x1="288.3" x2="283.6" y1="-157.6" y2="110.5" gradientUnits="userSpaceOnUse">
  <stop stop-color="#321e3c" offset="0"/>
  <stop stop-color="#786964" offset=".758"/>
  <stop stop-color="#c3c1c0" offset="1"/>
 </linearGradient>
 <linearGradient id="SVGID_54_" x1="264.7" x2="215.8" y1="-193.8" y2="36.3" gradientUnits="userSpaceOnUse">
  <stop stop-color="#321e3c" offset="0"/>
  <stop stop-color="#786964" offset=".957"/>
  <stop stop-color="#786964" offset="1"/>
 </linearGradient>
 <radialGradient id="SVGID_55_" cx="378.5" cy="-120.2" r="142.83" gradientUnits="userSpaceOnUse">
  <stop stop-color="#1e141e" offset="0"/>
  <stop stop-color="#321e3c" offset=".379"/>
  <stop stop-color="#5b4b63" offset="1"/>
 </radialGradient>
 <linearGradient id="SVGID_56_" x1="388.4" x2="371.3" y1="-97.9" y2="-142.5" gradientUnits="userSpaceOnUse">
  <stop stop-color="#321e3c" offset="0"/>
  <stop stop-color="#938783" offset=".941"/>
  <stop stop-color="#938783" offset="1"/>
 </linearGradient>
 <g id="zacken_vorne">
  <use id="XMLID_1_" transform="matrix(1.2912 0 0 -1.2912 1454.1 809.81)" x="-500.29" y="-329" width="1000.57" height="658" xlink:href="#zahnrad-liegend"/>
 </g>
 <g id="rad_v_stern">
  <use transform="matrix(1.2912 0 0 -1.2912 566.81 339.87)" x="-439" y="-263.23" width="877.99" height="526.46" xlink:href="#zahnrad-schräg"/>
 </g>
</svg>
